<?xml version="1.0" encoding="utf-8"?>
<!-- Generator: Adobe Illustrator 24.1.3, SVG Export Plug-In . SVG Version: 6.00 Build 0)  -->
<svg version="1.1" xmlns="http://www.w3.org/2000/svg" xmlns:xlink="http://www.w3.org/1999/xlink" x="0px" y="0px"
	 viewBox="0 0 3710 3710" style="enable-background:new 0 0 3710 3710;" xml:space="preserve">
<style type="text/css">
	.st0{fill:#FFFFFF;}
	.st1{fill:#F4F7FA;}
	.st2{opacity:0.8;clip-path:url(#SVGID_3_);}
	.st3{opacity:0.8;clip-path:url(#SVGID_6_);}
	.st4{fill:#D8DEE8;}
	.st5{fill:url(#SVGID_7_);}
	.st6{fill:url(#SVGID_8_);}
	.st7{fill:url(#SVGID_9_);}
	.st8{fill:url(#SVGID_10_);}
	.st9{fill:url(#SVGID_11_);}
	.st10{opacity:0.5;}
	.st11{opacity:0.5;fill:#FFFFFF;}
	.st12{fill:url(#SVGID_12_);}
	.st13{fill:url(#SVGID_13_);}
	.st14{fill:url(#SVGID_14_);}
	.st15{fill:url(#SVGID_15_);}
	.st16{fill:url(#SVGID_16_);}
	.st17{fill:url(#SVGID_17_);}
	.st18{opacity:0.3;fill:url(#SVGID_18_);}
	.st19{fill:url(#SVGID_19_);}
	.st20{fill:url(#SVGID_20_);}
	.st21{fill:url(#SVGID_21_);}
	.st22{fill:url(#SVGID_22_);}
	.st23{fill:url(#SVGID_23_);}
	.st24{fill:url(#SVGID_24_);}
	.st25{fill:url(#SVGID_25_);}
	.st26{fill:url(#SVGID_26_);}
	.st27{fill:url(#SVGID_27_);}
	.st28{fill:url(#SVGID_28_);}
	.st29{fill:url(#SVGID_29_);}
	.st30{opacity:0.1;fill:url(#SVGID_30_);}
	.st31{opacity:0.1;fill:url(#SVGID_31_);}
	.st32{fill:url(#SVGID_32_);}
	.st33{fill:url(#SVGID_33_);}
	.st34{opacity:0.4;fill:#FFFFFF;}
</style>
<g id="Background">
	<g>
		<g>
			<rect class="st0" width="3710" height="3710"/>
		</g>
	</g>
</g>
<g id="Illustration">
	<g>
		<path class="st1" d="M3189.92,1539.2c-30.3-373.58-45.45-560.37-115.97-681.22C2872.04,511.95,2285,429.65,1914.24,461.21
			c-496.36,42.24-1064.19,327.58-1314.14,878.5c-227.02,500.39-122.34,1066.8,219.73,1437.32
			c627.07,679.22,1920.57,557.95,2236.55,112.26c126.1-177.87,135.19-461.97,148.55-879.3
			C3211.35,1809.1,3198.82,1649.01,3189.92,1539.2z"/>
		<g>
			<g>
				<g>
					<defs>
						<path id="SVGID_1_" d="M2952.06,683.56c-32.09-26.55-80.77-41.01-121.92-43.93c-291.69-20.67-334.26,589.04-289.55,725.3
							c44.71,136.26,15.74,181-213.99,252.29s-119.52,208.55-91.52,288.82c28,80.27,83.45,148.08-84.02,227.84
							c-167.47,79.76-109.27,129.18-109.27,129.18s308.84,315.91,291.78,214.77c-17.06-101.14,13.85-253.86,290.75-265.47
							c119.27-5,301.91-61.89,342.35-189.6c9.42-29.74,15.97-75.16,8.81-105.94c-9.94-42.7-37.96-76.34-53.52-116.53
							c-36.26-93.65,54.69-162.23,107.03-224.83c27.33-32.68,54.64-66.19,75.56-103.45c43.45-77.36,27.18-160.32-20.13-231.63
							c-22.69-34.19-54.21-70.47-64.11-111.26c-10.63-43.81-1.36-103.67,1.16-148.74c1.98-35.35,5.35-70.56,3.36-106
							C3021.15,808.48,3005.71,727.95,2952.06,683.56z"/>
					</defs>
					<linearGradient id="SVGID_2_" gradientUnits="userSpaceOnUse" x1="2354.4834" y1="2474.6184" x2="3084.8721" y2="501.9938">
						<stop  offset="3.597120e-03" style="stop-color:#E38DDD"/>
						<stop  offset="1" style="stop-color:#9571F6"/>
					</linearGradient>
					<use xlink:href="#SVGID_1_"  style="overflow:visible;fill:url(#SVGID_2_);"/>
					<clipPath id="SVGID_3_">
						<use xlink:href="#SVGID_1_"  style="overflow:visible;"/>
					</clipPath>
					<g class="st2">
						<g>
							<path class="st0" d="M2017.51,2440.37c-2,0.72-4.27-0.13-5.28-2.06c-1.1-2.11-0.29-4.72,1.82-5.82
								c1.3-0.68,131.32-69.07,276.36-181.71c133.65-103.79,307.76-267.44,378.25-457.69c58.88-158.89,112.57-421.57,147.32-720.67
								c31.16-268.21,36.08-466.57,22.84-503.39c-0.81-2.24,0.36-4.71,2.6-5.52c2.24-0.81,4.71,0.36,5.52,2.6
								c15.49,43.08,5.66,265.91-22.38,507.31c-34.82,299.76-88.69,563.16-147.8,722.67c-71.22,192.2-246.59,357.11-381.17,461.6
								c-145.64,113.08-276.23,181.76-277.53,182.44C2017.87,2440.22,2017.69,2440.3,2017.51,2440.37z"/>
						</g>
						<g>
							<path class="st0" d="M2815.51,1124.41c-2.23,0.8-4.5,0.18-5.32-2.05c-1.08-2.95-109.82-295.5-250.04-361.55
								c-2.16-1.01-3.03-3.45-2.02-5.61c1.02-2.16,3.61-3.01,5.76-2c143.43,67.56,249.91,353.97,254.38,366.16
								c0.82,2.24-0.5,4.24-2.74,5.04C2815.52,1124.41,2815.51,1124.41,2815.51,1124.41z"/>
						</g>
						<g>
							<path class="st0" d="M2762.48,1463.68c-1.66,0.6-3.6,0.13-4.79-1.32c-1.51-1.84-1.25-4.56,0.59-6.07
								c0.8-0.66,80.86-66.33,179.64-121.44c133.47-74.46,235.76-95.25,304.02-61.78c2.14,1.05,3.02,3.63,1.97,5.77
								c-1.05,2.14-3.63,3.02-5.77,1.97c-157.06-77-471.23,179.53-474.38,182.13C2763.37,1463.27,2762.93,1463.52,2762.48,1463.68z"
								/>
						</g>
						<g>
							<path class="st0" d="M2413.92,2157.15c-0.44,0.16-0.9,0.24-1.39,0.25c-2.38,0.04-4.34-1.86-4.38-4.25
								c-0.02-1.25-2.24-126.77-28.51-259.03c-24.09-121.26-73.83-273.15-173.99-308.15c-2.25-0.79-3.44-3.25-2.65-5.49
								c0.78-2.25,3.25-3.44,5.49-2.65c83.52,29.18,143.95,135.07,179.63,314.73c26.41,133.01,28.63,259.2,28.65,260.46
								C2416.81,2154.92,2415.61,2156.54,2413.92,2157.15z"/>
						</g>
						<g>
							<path class="st0" d="M2592.15,1954.36c-1.75,0.63-3.77,0.07-4.93-1.5c-1.42-1.92-1.01-4.62,0.9-6.03
								c13.89-10.27,341.53-251.14,469.3-228.14c2.35,0.42,3.9,2.67,3.48,5.01c-0.42,2.35-2.66,3.91-5.01,3.48
								c-124.15-22.35-459.27,224.09-462.64,226.58C2592.91,1954.03,2592.53,1954.22,2592.15,1954.36z"/>
						</g>
					</g>
				</g>
			</g>
			<g>
				<g>
					<defs>
						<path id="SVGID_4_" d="M3208.07,1581.59c-21.21-35.84-62.13-65.92-99.86-82.59c-267.5-118.15-513.86,441.19-517.9,584.54
							c-4.04,143.35-46.44,175.65-286.73,165c-240.3-10.65-183.04,155.81-183.85,240.82c-0.81,85.01,28.42,167.58-156.16,185.97
							c-184.58,18.39-146.54,84.58-146.54,84.58s183.73,401.78,201.9,300.83s98.93-234.2,363.42-151.42
							c113.92,35.65,305.04,43.92,386.31-62.57c18.93-24.8,40.46-65.32,44.13-96.71c5.09-43.54-9.89-84.68-10.94-127.76
							c-2.44-100.4,106.36-134.16,176.79-175.35c36.77-21.5,73.81-43.8,106.11-71.78c67.06-58.09,79.83-141.66,59.44-224.77
							c-9.78-39.85-27.17-84.66-22.68-126.39c4.82-44.82,33.8-98.02,51.42-139.58c13.82-32.59,28.91-64.59,39.03-98.61
							C3230.81,1722.51,3243.54,1641.51,3208.07,1581.59z"/>
					</defs>
					<linearGradient id="SVGID_5_" gradientUnits="userSpaceOnUse" x1="1813.7922" y1="2279.8706" x2="3230.5176" y2="2279.8706">
						<stop  offset="0" style="stop-color:#FF9085"/>
						<stop  offset="1" style="stop-color:#FB6FBB"/>
					</linearGradient>
					<use xlink:href="#SVGID_4_"  style="overflow:visible;fill:url(#SVGID_5_);"/>
					<clipPath id="SVGID_6_">
						<use xlink:href="#SVGID_4_"  style="overflow:visible;"/>
					</clipPath>
					<g class="st3">
						<g>
							<path class="st0" d="M1734.18,2918.53c-2.12,0-3.97-1.57-4.27-3.73c-0.32-2.36,1.33-4.54,3.69-4.86
								c1.45-0.2,146.94-20.56,321.54-77.48c160.88-52.44,380.1-147.53,510.81-302.7c109.17-129.6,248.58-358.61,382.48-628.31
								c120.07-241.84,191.82-426.84,191.82-465.97c0-2.38,1.93-4.31,4.31-4.31c2.38,0,4.31,1.93,4.31,4.31
								c0,45.78-84.65,252.14-192.72,469.81c-134.2,270.29-274.02,499.93-383.61,630.03c-132.05,156.76-352.88,252.6-514.88,305.39
								c-175.31,57.13-321.44,77.57-322.9,77.77C1734.58,2918.52,1734.38,2918.53,1734.18,2918.53z"/>
						</g>
						<g>
							<path class="st0" d="M2930.4,1951.11c-2.37,0-4.3-1.8-4.31-4.17c-0.02-3.14-3.35-315.45-112.95-425.05
								c-1.69-1.68-1.69-4.39,0-6.07c1.68-1.68,4.41-1.67,6.1,0.01c112.11,112.11,115.39,418.07,115.48,431.05
								c0.02,2.38-1.9,4.23-4.29,4.23C2930.41,1951.11,2930.4,1951.11,2930.4,1951.11z"/>
						</g>
						<g>
							<path class="st0" d="M2765.7,2251.54c-1.77,0-3.43-1.1-4.06-2.86c-0.8-2.24,0.36-4.71,2.61-5.52
								c0.97-0.35,98.53-35.06,210.14-53.49c150.79-24.91,254.08-9.85,307,44.74c1.66,1.71,1.61,4.44-0.1,6.1
								c-1.71,1.66-4.44,1.61-6.1-0.1c-121.74-125.6-504.18,9.49-508.03,10.87C2766.67,2251.46,2766.18,2251.54,2765.7,2251.54z"/>
						</g>
						<g>
							<path class="st0" d="M2203.05,2786.16c-0.46,0-0.93-0.08-1.4-0.23c-2.25-0.77-3.46-3.22-2.68-5.48
								c0.4-1.19,40.79-120.05,60.82-253.4c18.36-122.26,22.95-282.02-59.46-348.85c-1.85-1.5-2.13-4.22-0.63-6.07
								c1.5-1.85,4.22-2.14,6.07-0.63c68.72,55.72,89.76,175.82,62.53,356.94c-20.15,134.1-60.76,253.6-61.17,254.8
								C2206.52,2785.03,2204.84,2786.16,2203.05,2786.16z"/>
						</g>
						<g>
							<path class="st0" d="M2439.38,2655.64c-1.86,0-3.57-1.21-4.13-3.07c-0.69-2.28,0.61-4.69,2.89-5.37
								c16.54-4.96,406.36-120.76,518.81-55.88c2.06,1.19,2.77,3.83,1.58,5.89c-1.19,2.06-3.83,2.77-5.89,1.58
								c-109.27-63.04-508.01,55.47-512.02,56.67C2440.21,2655.58,2439.79,2655.64,2439.38,2655.64z"/>
						</g>
					</g>
				</g>
			</g>
		</g>
		<g>
			<g>
				<path class="st4" d="M2311.39,573.96l-3.08,22.06c-10.23,0.47-20.29,1.79-30.08,3.99l-8.34-20.58
					c-2.27-5.61-8.7-8.28-14.35-5.95l-35.37,14.57c-5.66,2.33-8.42,8.79-6.16,14.41l8.38,20.84c-8.57,5.46-16.67,11.64-24.21,18.48
					L2180.42,628c-4.8-3.72-11.76-2.8-15.55,2.06l-23.76,30.4c-3.81,4.87-3,11.85,1.8,15.58l17.83,13.86
					c-4.75,8.92-8.74,18.34-11.96,28.17l-22.63-2.97c-6.08-0.8-11.74,3.51-12.64,9.63l-5.69,38.34c-0.91,6.14,3.29,11.78,9.38,12.58
					l22.7,2.98c0.27,10.35,1.4,20.53,3.41,30.44l-21.3,8.88c-5.74,2.39-8.56,9-6.3,14.75l14.19,36.06c2.27,5.78,8.78,8.51,14.54,6.1
					l21.31-8.92c5.36,8.72,11.47,16.94,18.25,24.58l-14.2,18.44c-3.84,4.99-3.02,12.13,1.84,15.95l30.44,23.88
					c4.87,3.82,11.94,2.86,15.77-2.15l14.03-18.32c8.96,4.77,18.44,8.74,28.33,11.91l-3.19,22.86c-0.87,6.26,3.4,11.99,9.54,12.79
					l38.43,5.04c6.15,0.81,11.82-3.62,12.68-9.88l3.1-22.69c10.45-0.45,20.72-1.8,30.71-4.05l8.43,20.96
					c2.34,5.82,8.89,8.57,14.63,6.14l35.84-15.19c5.73-2.43,8.46-9.1,6.11-14.9l-8.43-20.81c8.75-5.65,16.99-12.06,24.63-19.15
					l17.52,13.62c4.9,3.81,11.92,2.85,15.68-2.14l23.47-31.12c3.75-4.97,2.82-12.06-2.07-15.85l-17.36-13.46
					c4.73-9.17,8.66-18.86,11.78-28.95l21.7,2.85c6.09,0.8,11.67-3.55,12.46-9.71l4.93-38.44c0.79-6.13-3.5-11.75-9.58-12.55
					l-21.64-2.84c-0.45-10.48-1.77-20.76-3.99-30.75l20.07-8.4c5.64-2.36,8.31-8.88,5.97-14.56l-14.66-35.44
					c-2.34-5.66-8.8-8.34-14.44-5.99l-20.19,8.42c-5.5-8.63-11.72-16.77-18.63-24.3l13.34-17.41c3.71-4.85,2.8-11.78-2.02-15.49
					l-30.15-23.17c-4.82-3.7-11.73-2.79-15.45,2.04l-13.42,17.43c-8.9-4.62-18.3-8.46-28.11-11.5l2.99-21.89
					c0.82-6.02-3.39-11.55-9.42-12.34l-37.67-4.94C2317.8,563.7,2312.23,567.93,2311.39,573.96z M2178.58,752.65
					c10.89-75.76,80.42-128.87,155.37-119.04c74.95,9.83,127.59,78.97,117.52,154.83c-10.13,76.33-79.81,130.48-155.58,120.55
					C2220.12,899.05,2167.63,828.87,2178.58,752.65z"/>
			</g>
			<g>
				<path class="st4" d="M1733.77,562l-4.76,34.11c-15.81,0.72-31.37,2.76-46.51,6.16l-12.89-31.82c-3.52-8.68-13.45-12.8-22.18-9.2
					l-54.69,22.53c-8.75,3.61-13.02,13.58-9.52,22.29l12.96,32.22c-13.25,8.44-25.78,17.99-37.43,28.58l-27.5-21.31
					c-7.41-5.75-18.18-4.32-24.04,3.18l-36.74,47c-5.89,7.53-4.64,18.32,2.78,24.09l27.57,21.44c-7.34,13.79-13.52,28.36-18.5,43.55
					l-34.99-4.59c-9.39-1.23-18.14,5.43-19.55,14.89l-8.79,59.29c-1.41,9.5,5.09,18.21,14.51,19.44l35.09,4.6
					c0.42,16,2.16,31.75,5.28,47.07l-32.93,13.73c-8.88,3.7-13.24,13.91-9.74,22.81l21.94,55.75c3.51,8.93,13.58,13.16,22.48,9.43
					l32.95-13.79c8.28,13.48,17.73,26.19,28.22,38l-21.95,28.51c-5.94,7.72-4.67,18.76,2.85,24.66l47.07,36.92
					c7.53,5.91,18.46,4.42,24.39-3.32l21.69-28.32c13.85,7.38,28.52,13.52,43.81,18.42l-4.94,35.35
					c-1.35,9.68,5.25,18.54,14.76,19.78l59.42,7.79c9.5,1.25,18.28-5.6,19.6-15.28l4.8-35.08c16.16-0.69,32.04-2.78,47.48-6.26
					l13.03,32.41c3.62,9,13.75,13.25,22.62,9.49l55.42-23.48c8.85-3.75,13.08-14.07,9.44-23.05l-13.04-32.18
					c13.53-8.73,26.27-18.65,38.09-29.61l27.08,21.06c7.57,5.89,18.42,4.4,24.24-3.3l36.29-48.11c5.79-7.68,4.36-18.65-3.2-24.51
					l-26.84-20.8c7.32-14.19,13.39-29.17,18.21-44.76l33.56,4.4c9.42,1.24,18.05-5.49,19.27-15.01l7.62-59.44
					c1.22-9.49-5.42-18.17-14.81-19.4l-33.46-4.39c-0.69-16.2-2.73-32.1-6.17-47.54l31.04-12.99c8.73-3.65,12.86-13.73,9.22-22.51
					l-22.67-54.8c-3.62-8.75-13.61-12.89-22.32-9.26l-31.21,13.01c-8.5-13.35-18.13-25.93-28.8-37.56l20.62-26.92
					c5.74-7.49,4.34-18.21-3.13-23.95l-46.62-35.82c-7.45-5.72-18.14-4.31-23.89,3.16l-20.76,26.95
					c-13.77-7.14-28.3-13.08-43.46-17.79l4.63-33.85c1.27-9.31-5.25-17.85-14.56-19.07l-58.25-7.64
					C1743.67,546.14,1735.07,552.69,1733.77,562z M1528.42,838.29c16.83-117.14,124.34-199.26,240.22-184.06
					c115.88,15.2,197.27,122.1,181.71,239.4c-15.66,118.01-123.39,201.75-240.54,186.38
					C1592.65,1064.65,1511.48,956.13,1528.42,838.29z"/>
			</g>
		</g>
		<g>
			
				<linearGradient id="SVGID_7_" gradientUnits="userSpaceOnUse" x1="1298.5149" y1="1945.8887" x2="880.3348" y2="1991.5082" gradientTransform="matrix(-1 0 0 1 3475.8816 0)">
				<stop  offset="0" style="stop-color:#444B8C"/>
				<stop  offset="0.9964" style="stop-color:#26264F"/>
			</linearGradient>
			<path class="st5" d="M1678.04,892.3l-254.76,2117.54c-3.82,31.75,18.06,60.21,48.72,63.25l1061.12,116.5
				c65,4.04,100.59-29.17,104.61-62.93l267.47-2251.3c3.99-33.57-27.9-63.98-93.18-63.98l-1070.77,22.55
				C1710.24,834.46,1681.84,860.72,1678.04,892.3z"/>
			
				<linearGradient id="SVGID_8_" gradientUnits="userSpaceOnUse" x1="1666.9709" y1="891.7824" x2="632.9328" y2="4412.083" gradientTransform="matrix(-1 0 0 1 3475.8816 0)">
				<stop  offset="0" style="stop-color:#444B8C"/>
				<stop  offset="0.9964" style="stop-color:#26264F"/>
			</linearGradient>
			<path class="st6" d="M1630.28,888.66l-256.16,2128.13c-3.84,31.91,18.12,60.52,48.88,63.58l1100.08,109.53
				c34.49,3.43,66.1-21.52,70.13-55.45l268.97-2262.93c4.01-33.75-21.32-60.87-56.19-60.28l-1112.28,18.77
				C1662.61,830.52,1634.1,856.92,1630.28,888.66z"/>
			<path class="st4" d="M1651.16,1006.04l-237.43,1973.2c-3.59,29.81,16.98,56.49,45.77,59.29l1034.59,100.57
				c32.06,3.12,61.44-20.17,65.2-51.76l248.57-2090.42c3.74-31.42-19.78-56.85-52.17-56.5l-1045.21,11.13
				C1681.39,951.85,1654.73,976.38,1651.16,1006.04z"/>
			
				<linearGradient id="SVGID_9_" gradientUnits="userSpaceOnUse" x1="1279.4926" y1="805.0746" x2="64.2169" y2="4096.4453" gradientTransform="matrix(-1 0 0 1 3475.8816 0)">
				<stop  offset="0" style="stop-color:#FFC444"/>
				<stop  offset="0.9964" style="stop-color:#F36F56"/>
			</linearGradient>
			<path class="st7" d="M2205.96,887.19c-1.36,11.33,6.77,20.4,18.17,20.25c11.41-0.14,21.77-9.46,23.13-20.81
				c1.36-11.35-6.8-20.42-18.21-20.25C2217.64,866.55,2207.31,875.87,2205.96,887.19z"/>
			<g>
				<path class="st0" d="M1830.03,2330.58c211.8-391.59,528.21-508.81,623.47-912.39c51.49-218.15,16.41-426.95-42.68-600.29
					l395.19-6.67c34.87-0.59,60.2,26.54,56.19,60.28l-268.97,2262.93c-4.03,33.94-35.64,58.89-70.13,55.45l-864.77-86.1
					C1651.92,2752.91,1735.61,2505.13,1830.03,2330.58z"/>
			</g>
		</g>
		<g>
			<g>
				
					<linearGradient id="SVGID_10_" gradientUnits="userSpaceOnUse" x1="8521.0596" y1="8271.5459" x2="7689.8062" y2="9055.3906" gradientTransform="matrix(-1 0 0 -1 99.9479 18234.4336)">
					<stop  offset="0" style="stop-color:#311944"/>
					<stop  offset="1" style="stop-color:#893976"/>
				</linearGradient>
				<path class="st8" d="M585.86,1113.23c0-208.08,181.51-376.73,399.33-376.71c211.38,0.02,378.2,159.8,378.2,356.87
					c0,197.07-166.82,365.36-378.2,376.17C767.36,1480.7,585.86,1321.31,585.86,1113.23z"/>
			</g>
			<g>
				<linearGradient id="SVGID_11_" gradientUnits="userSpaceOnUse" x1="734.2134" y1="1315.7295" x2="1400.3253" y2="711.2507">
					<stop  offset="0" style="stop-color:#FF9085"/>
					<stop  offset="1" style="stop-color:#FB6FBB"/>
				</linearGradient>
				<path class="st9" d="M609.34,1096.64c0-208.08,176.26-376.73,387.77-376.71c205.26,0.02,367.26,159.8,367.26,356.87
					c0,197.07-162,365.36-367.26,376.17C785.59,1464.11,609.34,1304.71,609.34,1096.64z"/>
			</g>
			<g class="st10">
				<path class="st0" d="M669.68,1095.05c0-174.82,148.08-316.52,325.79-316.49c172.45,0.02,308.56,134.26,308.56,299.83
					c0,165.57-136.1,306.96-308.56,316.04C817.76,1403.79,669.68,1269.87,669.68,1095.05z"/>
			</g>
			<path class="st11" d="M983.24,805.42c172.45,0.02,308.56,134.26,308.56,299.83c0,39.37-7.77,77.34-21.82,112.52
				c21.76-42.36,34.06-89.77,34.06-139.38c0-165.57-136.1-299.81-308.56-299.83c-137.06-0.01-256.42,84.31-303.89,203.07
				C745.34,877.22,856.76,805.41,983.24,805.42z"/>
			<g>
				<path class="st0" d="M848.13,1052.26v152.58c0,44.11,37.11,78.91,82.75,77.72l113.17-2.95c45.09-1.18,81.53-37.51,81.53-81.16
					v-150.97L848.13,1052.26z M952.35,1210l21.03-63.73c-9.01-4.65-15.11-13.81-15.11-24.48c0-15.66,13.14-28.61,29.32-28.91
					c16.16-0.31,29.25,12.11,29.25,27.74c0,10.65-6.08,20.04-15.06,25.06l20.95,62.68L952.35,1210z"/>
				<path class="st0" d="M1093.41,1034.25c-12.01,0.2-21.75-9.09-21.75-20.76c0-44.85-37.65-80.85-84.08-80.25
					c-46.59,0.6-84.62,37.81-84.62,82.94c0,11.74-9.87,21.42-22.06,21.63c-12.2,0.2-22.1-9.16-22.1-20.92
					c0-68.69,57.93-125.23,128.79-126.02c70.48-0.79,127.53,53.91,127.53,121.94C1115.12,1024.45,1105.41,1034.05,1093.41,1034.25z"
					/>
			</g>
		</g>
		<g>
			
				<linearGradient id="SVGID_12_" gradientUnits="userSpaceOnUse" x1="-554.9016" y1="1841.3425" x2="-422.9021" y2="1975.6991" gradientTransform="matrix(-1 0 0 1 854.1966 0)">
				<stop  offset="0" style="stop-color:#FFC444"/>
				<stop  offset="0.9964" style="stop-color:#F36F56"/>
			</linearGradient>
			<path class="st12" d="M1355.52,1904.52c0,0-7.7-28.86-2.24-36.24c5.45-7.38,38.8-36.88,35.6-27.26
				c-3.21,9.62-8.02,16.03-8.02,16.03s17.96,8.34,6.41,20.84c-11.54,12.51-15.4,15.39-16.04,26.62
				C1370.6,1915.74,1363.22,1919.59,1355.52,1904.52z"/>
			
				<linearGradient id="SVGID_13_" gradientUnits="userSpaceOnUse" x1="-227.7117" y1="3117.5774" x2="-228.8239" y2="2819.5098" gradientTransform="matrix(-1 0 0 1 854.1966 0)">
				<stop  offset="0" style="stop-color:#AA80F9"/>
				<stop  offset="0.9964" style="stop-color:#6165D7"/>
			</linearGradient>
			<path class="st13" d="M1035.17,3150.29c0,0-4.08,24.96-3.56,33.84c0.52,8.88,99.1,13.42,100.09,6.77s-16.29-17.24-28.46-20.97
				c-12.17-3.74-47.79-13.7-47.79-13.7L1035.17,3150.29z"/>
			
				<linearGradient id="SVGID_14_" gradientUnits="userSpaceOnUse" x1="-3296.2217" y1="3422.2427" x2="-3294.3804" y2="3267.5801" gradientTransform="matrix(-0.9968 0.0799 0.0799 0.9968 -2506.7317 65.4365)">
				<stop  offset="0" style="stop-color:#FFC444"/>
				<stop  offset="0.9964" style="stop-color:#F36F56"/>
			</linearGradient>
			<path class="st14" d="M1059.09,3125.41l-3.14,31.04c0,0-11.45,7.57-21.54,1.73l-5.05-33.78L1059.09,3125.41z"/>
			
				<linearGradient id="SVGID_15_" gradientUnits="userSpaceOnUse" x1="-51.9819" y1="3116.9216" x2="-53.0942" y2="2818.854" gradientTransform="matrix(-1 0 0 1 854.1966 0)">
				<stop  offset="0" style="stop-color:#AA80F9"/>
				<stop  offset="0.9964" style="stop-color:#6165D7"/>
			</linearGradient>
			<path class="st15" d="M859.28,3190.75c0,0-4.08,24.96-3.56,33.84c0.52,8.88,99.1,13.42,100.09,6.77
				c1-6.65-16.29-17.24-28.46-20.97c-12.17-3.73-47.79-13.7-47.79-13.7L859.28,3190.75z"/>
			
				<linearGradient id="SVGID_16_" gradientUnits="userSpaceOnUse" x1="-3117.3809" y1="3424.3682" x2="-3115.5396" y2="3269.7039" gradientTransform="matrix(-0.9968 0.0799 0.0799 0.9968 -2506.7317 65.4365)">
				<stop  offset="0" style="stop-color:#FFC444"/>
				<stop  offset="0.9964" style="stop-color:#F36F56"/>
			</linearGradient>
			<path class="st16" d="M883.21,3165.87l-3.14,31.04c0,0-11.45,7.57-21.54,1.73l-5.05-33.78L883.21,3165.87z"/>
			
				<linearGradient id="SVGID_17_" gradientUnits="userSpaceOnUse" x1="-192.7959" y1="2437.2888" x2="-83.5422" y2="2995.8469" gradientTransform="matrix(-1 0 0 1 854.1966 0)">
				<stop  offset="0" style="stop-color:#311944"/>
				<stop  offset="1" style="stop-color:#893976"/>
			</linearGradient>
			<path class="st17" d="M1041.21,2315.15c11.39,23.1,22.79,46.2,34.18,69.3c9.16,131.83,13.72,275.19,10.79,428.5
				c-2.18,114.06-8.27,222.11-17.03,323.53c-15.45-0.71-30.9-1.42-46.35-2.13c-22.34-44.34-48.71-111.51-51.14-194.43
				c-2.53-86.49,23.69-97.98,22.03-180.79c-2.16-107.34-47.17-135.98-71.15-265.09c-9.17-49.38-15.34-113.87-8.01-192.11
				C956.76,2306.34,998.98,2310.75,1041.21,2315.15z"/>
			
				<linearGradient id="SVGID_18_" gradientUnits="userSpaceOnUse" x1="-3385.3862" y1="2924.8333" x2="-3220.7183" y2="2924.8333" gradientTransform="matrix(-0.9968 0.0799 0.0799 0.9968 -2506.7317 65.4365)">
				<stop  offset="0" style="stop-color:#311944"/>
				<stop  offset="1" style="stop-color:#893976"/>
			</linearGradient>
			<path class="st18" d="M914.54,2301.93c22.8,2.38,45.6,4.76,68.41,7.14c41.05,71.43,52.51,145.77,45.3,178.66
				c-10.19,46.53-37.15,61.43-35.66,108.14c1.47,46.22,28.7,58.21,45.97,112.68c11.96,37.72,8.8,72.4,2,140.22
				c-13.7,136.61-46.69,178.39-19.06,223.18c7.85,12.73,22,27.88,49.72,39.45c-0.68,8.38-1.35,16.78-2.06,25.07
				c-15.45-0.7-30.9-1.42-46.35-2.13c-22.34-44.34-48.71-111.51-51.14-194.43c-2.53-86.49,23.69-97.98,22.03-180.79
				c-2.16-107.34-47.17-135.97-71.15-265.08C913.38,2444.67,907.2,2380.18,914.54,2301.93z"/>
			
				<linearGradient id="SVGID_19_" gradientUnits="userSpaceOnUse" x1="-3292.4216" y1="2948.3552" x2="-3042.4402" y2="2948.3552" gradientTransform="matrix(-0.9968 0.0799 0.0799 0.9968 -2506.7317 65.4365)">
				<stop  offset="0" style="stop-color:#311944"/>
				<stop  offset="1" style="stop-color:#893976"/>
			</linearGradient>
			<path class="st19" d="M979.9,2356.74c-21.39,116.64-40.28,241.47-55.02,373.86c-17.8,159.85-27.3,310.55-31.03,450.46
				c-16.96,0.48-33.91,0.96-50.87,1.44c-66.82-132.19-70.9-221.81-61.27-280.16c3.71-22.48,13.8-66.57,16.1-132.47
				c1.6-45.93-1.33-80.89-4.99-122.91c-8.02-92.13-17.76-112.24-19.16-182.71c-1.32-66.14-1.59-99.6,17.29-119.13
				C840.69,2293.65,970.09,2352.18,979.9,2356.74z"/>
			
				<linearGradient id="SVGID_20_" gradientUnits="userSpaceOnUse" x1="-353.3517" y1="1918.8463" x2="-168.9961" y2="3102.821" gradientTransform="matrix(-1 0 0 1 854.1966 0)">
				<stop  offset="0" style="stop-color:#AA80F9"/>
				<stop  offset="0.9964" style="stop-color:#6165D7"/>
			</linearGradient>
			<path class="st20" d="M1346.65,1900.07c11.28-0.79,22.55-1.57,33.83-2.36c26.6,107.51,7.52,211.79-52.52,250.14
				c-93.81,59.92-268.16-52.97-305.94-175.9c-16.58-53.96-12.81-131.82,20.34-146.95c9.2-4.2,23.48-4.85,54.41,12.51
				c92.37,51.86,94.8,149.88,141.76,158.18C1259.39,1999.39,1293.11,1986.08,1346.65,1900.07z"/>
			
				<linearGradient id="SVGID_21_" gradientUnits="userSpaceOnUse" x1="-3059.6494" y1="3408.3694" x2="-2875.2939" y2="4592.3438" gradientTransform="matrix(-0.9968 0.0799 0.0799 0.9968 -2506.7317 65.4365)">
				<stop  offset="0" style="stop-color:#AA80F9"/>
				<stop  offset="0.9964" style="stop-color:#6165D7"/>
			</linearGradient>
			<path class="st21" d="M1088.37,2408.1c16.25-26.96-4.16-52.96-8.8-104.03c-5.26-57.89,17.04-67.53,39.09-163.46
				c14.67-63.8,28.74-125.05,11.94-196.75c-8.05-34.36-21.71-92.64-69.95-120.79c-24.89-14.53-58.88-13.07-125.83-9.57
				c-82.8,4.33-124.19,6.49-155.07,22.75c-4.52,2.38-98.44,53.47-104.91,136.75c-6.58,84.76,85.72,96.15,98.03,209.18
				c5.53,50.74-4.32,128.78-10.71,179.39c-6.13,48.6-10.36,61.04-0.76,75.76c23.12,35.47,93.89,25.36,235.43,5.15
				C1052.35,2434.54,1076.24,2428.22,1088.37,2408.1z"/>
			
				<linearGradient id="SVGID_22_" gradientUnits="userSpaceOnUse" x1="-2790.0225" y1="2978.0249" x2="-3347.9243" y2="2177.0764" gradientTransform="matrix(-0.9968 0.0799 0.0799 0.9968 -2506.7317 65.4365)">
				<stop  offset="0" style="stop-color:#AA80F9"/>
				<stop  offset="0.9964" style="stop-color:#6165D7"/>
			</linearGradient>
			<path class="st22" d="M873.01,2163.99c-5.99,22.03-27.51,38.48-42.49,92.07c-3.23,11.57-26.28,93.96,3.61,114.24
				c17.26,11.71,32.76-10.48,74.66-13.38c72.6-5.02,107.19,56,154.62,39.33c8.23-2.9,19.09-9.06,29.94-23.22
				c2.16,12.76,1.79,23.85-4.97,35.08c-12.12,20.12-36.02,26.44-91.54,34.37c-141.54,20.21-212.31,30.32-235.43-5.15
				c-9.59-14.71-5.37-27.16,0.76-75.76c6.39-50.62,16.24-128.66,10.71-179.39c-12.31-113.03-104.62-124.42-98.03-209.18
				c1.76-22.66,10.09-42.83,21.24-60.4C813.18,1959.98,891.82,2094.76,873.01,2163.99z"/>
			
				<linearGradient id="SVGID_23_" gradientUnits="userSpaceOnUse" x1="167.4404" y1="2228.1665" x2="63.6492" y2="2368.3755" gradientTransform="matrix(-1 0 0 1 854.1966 0)">
				<stop  offset="0" style="stop-color:#FFC444"/>
				<stop  offset="0.9964" style="stop-color:#F36F56"/>
			</linearGradient>
			<path class="st23" d="M725.12,2330.71l23.43,14.96c4.21-4.86,13.95-14.66,29.15-18c17.13-3.77,36.8,1.64,37.25,7.1
				c0.37,4.38-11.61,8.8-13.46,9.48c-14.95,5.52-26.04,0.93-32.08,6.94c-2.14,2.13-4.8,6.08-10.93,9.74
				c-1.61,0.96-3.29,1.81-4.18,2.16c-9.98,3.88-27.09-13.49-28.56-15.01L725.12,2330.71z"/>
			
				<linearGradient id="SVGID_24_" gradientUnits="userSpaceOnUse" x1="-2843.7917" y1="3374.76" x2="-2659.436" y2="4558.7363" gradientTransform="matrix(-0.9968 0.0799 0.0799 0.9968 -2506.7317 65.4365)">
				<stop  offset="0" style="stop-color:#AA80F9"/>
				<stop  offset="0.9964" style="stop-color:#6165D7"/>
			</linearGradient>
			<path class="st24" d="M794.33,2023.45c16.95-40.59,28.69-102.74,1.92-195.03c-176.38,69.5-266.33,234.26-231.21,364.86
				c28.95,107.67,134.29,160.11,157.79,171.15c5.47-12.45,10.94-24.89,16.4-37.33c-27.23-30.32-57.92-75.16-53.58-126.33
				C691.67,2129.83,760.02,2105.62,794.33,2023.45z"/>
			
				<linearGradient id="SVGID_25_" gradientUnits="userSpaceOnUse" x1="-4522.6353" y1="5246.9668" x2="-4522.6353" y2="5087.4795" gradientTransform="matrix(-0.7795 0.6265 0.6265 0.7795 -5831.1143 622.2045)">
				<stop  offset="0" style="stop-color:#FFC444"/>
				<stop  offset="0.9964" style="stop-color:#F36F56"/>
			</linearGradient>
			<path class="st25" d="M930.48,1730c0,0-1.39,30.85-10.97,53.96c-8.66,20.88-54.18,34.01-63.41,38.67
				c-9.23,4.66,17.29,18.29,43.92,20.96c26.63,2.68,102.67-3.37,116.38-13.46c13.71-10.09-11.02-9.33-30.02-16.31
				c-19.01-6.98-30-44.15-26.64-61.02C963.1,1735.92,930.48,1730,930.48,1730z"/>
			
				<linearGradient id="SVGID_26_" gradientUnits="userSpaceOnUse" x1="-3260.1211" y1="2034.6805" x2="-3326.8308" y2="1865.2505" gradientTransform="matrix(-0.9968 0.0799 0.0799 0.9968 -2506.7317 65.4365)">
				<stop  offset="0" style="stop-color:#444B8C"/>
				<stop  offset="0.9964" style="stop-color:#3E4177"/>
			</linearGradient>
			<path class="st26" d="M972.6,1718.81c13.82-13.58,15.75-15.16,17.25-19.85c6.04-18.83-8.57-44.63-27.73-50.98
				c-1-0.33-13.85-4.44-18.75,1.13c-4.17,4.73,1.96,11.27-0.95,20.4c-2.73,8.54-10.13,9.18-23.86,20.38
				c-11.31,9.22-18.33,14.96-19.95,23.03c-3.34,16.63,16.79,40.73,34.61,40.08C939.63,1752.76,941.38,1749.49,972.6,1718.81z"/>
			<g>
				
					<linearGradient id="SVGID_27_" gradientUnits="userSpaceOnUse" x1="-4635.3701" y1="5201.0044" x2="-4560.8037" y2="5056.0146" gradientTransform="matrix(-0.7795 0.6265 0.6265 0.7795 -5831.1143 622.2045)">
					<stop  offset="0" style="stop-color:#FFC444"/>
					<stop  offset="0.9964" style="stop-color:#F36F56"/>
				</linearGradient>
				<path class="st27" d="M934.97,1755.57c0,0,14.69,16.63,37.06,11.13c20.03-4.92,14.92-50.9,0.26-58.24
					c-4.89-2.45-13.78-2.25-20.46,0.97c-3.95,1.9-5.05,3.88-11.56,6.86c-6,2.75-7.91,2.37-9.52,4.31
					c-2.02,2.42-2.89,7.64,3.44,20.22c-4.56-3.23-9.47-3.91-12.48-1.77c-0.48,0.34-1.7,1.54-2.23,3.11
					C917.57,1747.85,923.49,1753.64,934.97,1755.57z"/>
			</g>
		</g>
		<g>
			<linearGradient id="SVGID_28_" gradientUnits="userSpaceOnUse" x1="1315.825" y1="1978.0085" x2="2658.8752" y2="1978.0085">
				<stop  offset="0" style="stop-color:#311944"/>
				<stop  offset="1" style="stop-color:#893976"/>
			</linearGradient>
			<path class="st28" d="M2610.23,1133.02l5.17,27.91l0,0l-106.43,0.25l-923.6,2.19c-23.76,0.06-45.61,19.7-48.87,43.87
				l-220.48,1473.53c-3.28,24.39,34.68,61.62,58.3,63.44l409.75,31.49v-0.5l612.92,47.02c0.01,0,0.02,0,0.03,0l1.48,0.62
				c26.17,2.02,50.18-16.97,53.58-42.73c0-0.01,0,0.11,0.01,0.1l206.48-1573.25C2661.93,1181.44,2636.55,1132.95,2610.23,1133.02z"
				/>
			<g>
				<linearGradient id="SVGID_29_" gradientUnits="userSpaceOnUse" x1="2132.3562" y1="4619.5459" x2="1972.2142" y2="1845.6332">
					<stop  offset="3.597000e-03" style="stop-color:#F36F56"/>
					<stop  offset="1" style="stop-color:#FFC444"/>
				</linearGradient>
				<path class="st29" d="M2431.2,2749.45c-3.38,25.77-27.38,45.03-53.55,43.02l-1025.24-78.72c-23.61-1.81-40.04-23.05-36.76-47.44
					l200.43-1489.2c3.25-24.17,25.1-43.81,48.84-43.88l1031.03-2.84c26.31-0.07,44.97,20.56,41.63,46.08L2431.2,2749.45z"/>
				<path class="st0" d="M2444.82,1930.48c-1.68,12.76-13.6,22.28-26.62,21.8l-902.33-32.93c-11.91-0.43-20.29-10.24-18.65-22.43
					l17.74-131.49c1.64-12.18,12.51-20.42,24.43-20.09l903.12,25.08c13.04,0.36,22.27,9.57,20.6,22.32L2444.82,1930.48z"/>
				<path class="st0" d="M2409.88,2197.65c-1.68,12.79-13.61,23.7-26.63,23.05l-901.65-44.54c-11.9-0.59-20.18-11.98-18.54-24.18
					l17.88-134.03c1.64-12.19,12.61-22.64,24.52-22.16l902.2,36.39c13.02,0.53,22.23,12.31,20.55,25.08L2409.88,2197.65z"/>
				<linearGradient id="SVGID_30_" gradientUnits="userSpaceOnUse" x1="1496.9965" y1="1831.9537" x2="2463.3054" y2="1831.9537">
					<stop  offset="3.597000e-03" style="stop-color:#F36F56"/>
					<stop  offset="1" style="stop-color:#FFC444"/>
				</linearGradient>
				<path class="st30" d="M2463.18,1792.21c-2.14-0.69-4.44-1.07-6.89-1.14l-903.14-25.07c-11.91-0.34-22.79,7.92-24.41,20.07
					l-17.77,131.49c-0.04,0.34-0.07,0.66-0.1,1c-9.16-2.58-15.05-11.26-13.67-21.66l17.77-131.49c1.62-12.15,12.5-20.42,24.41-20.07
					l903.14,25.07C2455.33,1770.79,2464.52,1779.71,2463.18,1792.21z"/>
				<linearGradient id="SVGID_31_" gradientUnits="userSpaceOnUse" x1="1462.837" y1="2085.4709" x2="2428.3989" y2="2085.4709">
					<stop  offset="3.597000e-03" style="stop-color:#F36F56"/>
					<stop  offset="1" style="stop-color:#FFC444"/>
				</linearGradient>
				<path class="st31" d="M2428.4,2054.3c-2.17-0.86-4.51-1.38-6.99-1.48l-902.18-36.4c-11.91-0.48-22.9,9.99-24.52,22.18
					l-17.91,134.04c-0.1,0.86-0.17,1.69-0.17,2.55c-9.16-2.96-14.98-12.81-13.6-23.21l17.91-134.04
					c1.62-12.19,12.6-22.66,24.52-22.18l902.18,36.4C2419.69,2032.68,2428.43,2042.73,2428.4,2054.3z"/>
				<linearGradient id="SVGID_32_" gradientUnits="userSpaceOnUse" x1="1937.4349" y1="2179.0728" x2="1721.5884" y2="3547.8577">
					<stop  offset="3.597000e-03" style="stop-color:#F36F56"/>
					<stop  offset="1" style="stop-color:#FFC444"/>
				</linearGradient>
				<path class="st32" d="M2170.08,2414.2c2.66-20.17-11.6-38.75-31.87-39.92l-466.75-26.8c-19.33-1.11-37.18,15.17-39.81,34.81
					l-19.26,145.18c-2.63,19.67,10.78,38.49,30.1,39.81L2109,2599.2c20.26,1.39,38.92-15.72,41.59-35.92L2170.08,2414.2z"/>
				<g>
					<linearGradient id="SVGID_33_" gradientUnits="userSpaceOnUse" x1="2008.4357" y1="753.9221" x2="2054.5334" y2="2126.605">
						<stop  offset="3.597000e-03" style="stop-color:#F36F56"/>
						<stop  offset="1" style="stop-color:#FFC444"/>
					</linearGradient>
					<path class="st33" d="M2205.33,1436.07c-6.15,46.41-29.99,88.3-63.89,119.11c-36.53,33.23-84.65,53.45-134.69,52.48
						c-49.79-0.96-91.7-22.71-118.61-56.68c-24.82-31.31-36.98-73.03-30.89-118.66c12.67-94.93,99.89-171.67,195.6-171.44
						C2149.47,1261.09,2218.11,1339.52,2205.33,1436.07z"/>
					<g>
						<path class="st0" d="M2112.25,1383.32c-5.52,41.58-43.9,74.9-85.57,74.4c-41.5-0.5-70.56-34.37-65.07-75.65
							c5.5-41.27,43.49-74.56,85.01-74.37C2088.32,1307.89,2117.77,1341.74,2112.25,1383.32z"/>
						<path class="st0" d="M2141.44,1555.18c-36.53,33.23-84.65,53.45-134.69,52.48c-49.79-0.96-91.7-22.71-118.61-56.68
							c30.8-42.91,81.6-71.45,135.55-70.75C2077.93,1480.93,2121.65,1510.99,2141.44,1555.18z"/>
					</g>
				</g>
				<path class="st34" d="M2637.57,1176.47L2431.2,2749.45c-3.38,25.76-28.91,44.91-55.07,42.9l-615.77-47.28
					c-29.25-29.95-53.34-65.89-70.53-109.02c-8.44-21.15-14.62-43.97-18.73-67.97c-11.43-66.42-7-141.92,9.67-216.03
					c12.82-57.05,32.92-113.37,58.65-164.19c20.58-40.63,44.78-77.78,71.81-109c19.46-22.47,40.51-44.3,62.71-65.71
					c26.77-25.84,55.22-51.06,84.57-76.05c68.39-58.27,141.62-115.24,209.42-175.4c156.44-138.78,283.36-293.85,252.82-515.11
					c-0.98-6.97-10.51-60.34-22.69-115.66l196.36-0.54C2620.72,1130.32,2640.92,1150.96,2637.57,1176.47z"/>
			</g>
		</g>
	</g>
</g>
</svg>
